<svg width="1512" height="982" viewBox="0 0 1512 982" fill="none" xmlns="http://www.w3.org/2000/svg">
<g clip-path="url(#clip0_1_490)">
<rect width="1512" height="982" fill="#0D0D0D"/>
<path d="M-744 491.458L906.04 2141.5M-736.929 484.386L913.111 2134.43M-729.858 477.315L920.183 2127.36M-722.786 470.244L927.254 2120.28M-715.715 463.173L934.325 2113.21M-708.644 456.102L941.396 2106.14M-701.573 449.03L948.468 2099.07M-694.502 441.959L955.539 2092M-687.43 434.888L962.61 2084.93M-680.359 427.817L969.681 2077.86M-673.288 420.746L976.752 2070.79M-666.217 413.674L983.823 2063.71M-659.146 406.603L990.895 2056.64M-652.074 399.532L997.966 2049.57M-645.003 392.461L1005.04 2042.5M-637.932 385.39L1012.11 2035.43M-630.861 378.318L1019.18 2028.36M-623.789 371.247L1026.25 2021.29M-616.718 364.176L1033.32 2014.22M-609.647 357.105L1040.39 2007.15M-602.576 350.034L1047.46 2000.07M-595.505 342.962L1054.54 1993M-588.433 335.891L1061.61 1985.93M-581.362 328.82L1068.68 1978.86M-574.291 321.749L1075.75 1971.79M-567.22 314.677L1082.82 1964.72M-560.149 307.606L1089.89 1957.65M-553.077 300.535L1096.96 1950.58M-546.006 293.464L1104.03 1943.5M-538.935 286.393L1111.11 1936.43M-531.864 279.322L1118.18 1929.36M-524.793 272.25L1125.25 1922.29M-517.721 265.179L1132.32 1915.22M-510.65 258.108L1139.39 1908.15M-503.579 251.037L1146.46 1901.08M-496.508 243.966L1153.53 1894.01M-489.437 236.894L1160.6 1886.93M-482.365 229.823L1167.67 1879.86M-475.294 222.752L1174.75 1872.79M-468.223 215.681L1181.82 1865.72M-461.152 208.609L1188.89 1858.65M-454.081 201.538L1195.96 1851.58M-447.009 194.467L1203.03 1844.51M-439.938 187.396L1210.1 1837.44M-432.867 180.325L1217.17 1830.37M-425.796 173.254L1224.24 1823.29M-418.725 166.182L1231.32 1816.22M-411.653 159.111L1238.39 1809.15M-404.582 152.04L1245.46 1802.08M-397.511 144.969L1252.53 1795.01M-390.44 137.898L1259.6 1787.94M-383.369 130.826L1266.67 1780.87M-376.297 123.755L1273.74 1773.8M-369.226 116.684L1280.81 1766.72M-362.155 109.613L1287.89 1759.65M-355.084 102.542L1294.96 1752.58M-348.013 95.4703L1302.03 1745.51M-340.942 88.3992L1309.1 1738.44M-333.87 81.328L1316.17 1731.37M-326.799 74.2568L1323.24 1724.3M-319.728 67.1856L1330.31 1717.23M-312.657 60.1144L1337.38 1710.16M-305.586 53.0432L1344.45 1703.08M-298.514 45.972L1351.53 1696.01M-291.443 38.9008L1358.6 1688.94M-284.372 31.8296L1365.67 1681.87M-277.301 24.7584L1372.74 1674.8M-270.23 17.6872L1379.81 1667.73M-263.158 10.616L1386.88 1660.66M-256.087 3.5448L1393.95 1653.59M-249.016 -3.52637L1401.02 1646.51M-241.945 -10.5976L1408.1 1639.44M-234.874 -17.6688L1415.17 1632.37M-227.802 -24.74L1422.24 1625.3M-220.731 -31.8112L1429.31 1618.23M-213.66 -38.8824L1436.38 1611.16M-206.589 -45.9536L1443.45 1604.09M-199.518 -53.0248L1450.52 1597.02M-192.446 -60.0959L1457.59 1589.94M-185.375 -67.1672L1464.67 1582.87M-178.304 -74.2383L1471.74 1575.8M-171.233 -81.3096L1478.81 1568.73M-164.162 -88.3807L1485.88 1561.66M-157.09 -95.452L1492.95 1554.59M-150.019 -102.523L1500.02 1547.52M-142.948 -109.594L1507.09 1540.45M-135.877 -116.666L1514.16 1533.38M-128.806 -123.737L1521.23 1526.3M-121.734 -130.808L1528.31 1519.23M-114.663 -137.879L1535.38 1512.16M-107.592 -144.95L1542.45 1505.09M-100.521 -152.022L1549.52 1498.02M-93.4496 -159.093L1556.59 1490.95M-86.3784 -166.164L1563.66 1483.88M-79.3072 -173.235L1570.73 1476.81M-72.236 -180.306L1577.8 1469.73M-65.1648 -187.378L1584.88 1462.66M-58.0936 -194.449L1591.95 1455.59M-51.0224 -201.52L1599.02 1448.52M-43.9512 -208.591L1606.09 1441.45M-36.88 -215.662L1613.16 1434.38M-29.8088 -222.733L1620.23 1427.31M-22.7377 -229.805L1627.3 1420.24M-15.6664 -236.876L1634.37 1413.16M-8.59509 -243.947L1641.45 1406.09M-1.52386 -251.018L1648.52 1399.02M5.54736 -258.09L1655.59 1391.95M12.6186 -265.161L1662.66 1384.88M19.6898 -272.232L1669.73 1377.81M26.7611 -279.303L1676.8 1370.74M33.8323 -286.375L1683.87 1363.67M40.9036 -293.446L1690.94 1356.59M47.9748 -300.517L1698.02 1349.52M55.046 -307.588L1705.09 1342.45M62.1173 -314.66L1712.16 1335.38M69.1885 -321.731L1719.23 1328.31M76.2598 -328.802L1726.3 1321.24M83.331 -335.873L1733.37 1314.17M90.4022 -342.945L1740.44 1307.1M97.4735 -350.016L1747.51 1300.02M104.545 -357.087L1754.58 1292.95M111.616 -364.158L1761.66 1285.88M118.687 -371.23L1768.73 1278.81M125.758 -378.301L1775.8 1271.74M132.83 -385.372L1782.87 1264.67M139.901 -392.443L1789.94 1257.6M146.972 -399.514L1797.01 1250.53M154.043 -406.586L1804.08 1243.45M161.115 -413.657L1811.15 1236.38M168.186 -420.728L1818.23 1229.31M175.257 -427.799L1825.3 1222.24M182.328 -434.871L1832.37 1215.17M189.4 -441.942L1839.44 1208.1M196.471 -449.013L1846.51 1201.03M203.542 -456.084L1853.58 1193.96M210.613 -463.156L1860.65 1186.88M217.685 -470.227L1867.72 1179.81M224.756 -477.298L1874.8 1172.74M231.827 -484.369L1881.87 1165.67M238.898 -491.441L1888.94 1158.6M245.97 -498.512L1896.01 1151.53M253.041 -505.583L1903.08 1144.46M260.112 -512.654L1910.15 1137.39M267.183 -519.726L1917.22 1130.31M274.255 -526.797L1924.29 1123.24M281.326 -533.868L1931.37 1116.17M288.397 -540.939L1938.44 1109.1M295.468 -548.011L1945.51 1102.03M302.539 -555.082L1952.58 1094.96M309.611 -562.153L1959.65 1087.89M316.682 -569.224L1966.72 1080.82M323.753 -576.296L1973.79 1073.74M330.824 -583.367L1980.86 1066.67M337.896 -590.438L1987.94 1059.6M344.967 -597.509L1995.01 1052.53M352.038 -604.58L2002.08 1045.46M359.109 -611.652L2009.15 1038.39M366.181 -618.723L2016.22 1031.32M373.252 -625.794L2023.29 1024.25M380.323 -632.865L2030.36 1017.18M387.394 -639.937L2037.43 1010.1M394.466 -647.008L2044.51 1003.03M401.537 -654.079L2051.58 995.961M408.608 -661.15L2058.65 988.89M415.679 -668.222L2065.72 981.819M422.75 -675.293L2072.79 974.748M429.822 -682.364L2079.86 967.676M436.893 -689.435L2086.93 960.605M443.964 -696.507L2094 953.534M451.036 -703.578L2101.08 946.463M458.107 -710.649L2108.15 939.391M465.178 -717.72L2115.22 932.32M472.249 -724.792L2122.29 925.249M479.32 -731.863L2129.36 918.178M486.392 -738.934L2136.43 911.106M493.463 -746.005L2143.5 904.035M500.534 -753.077L2150.57 896.964M507.605 -760.148L2157.65 889.893M514.677 -767.219L2164.72 882.822M521.748 -774.29L2171.79 875.75M528.819 -781.361L2178.86 868.679M535.89 -788.433L2185.93 861.608M542.962 -795.504L2193 854.537M550.033 -802.575L2200.07 847.465M557.104 -809.646L2207.14 840.394M564.175 -816.718L2214.22 833.323M571.247 -823.789L2221.29 826.252M578.318 -830.86L2228.36 819.18M585.389 -837.931L2235.43 812.109M592.46 -845.003L2242.5 805.038M599.531 -852.074L2249.57 797.967M606.603 -859.145L2256.64 790.895M613.674 -866.216L2263.71 783.824M620.745 -873.288L2270.79 776.753M627.817 -880.359L2277.86 769.682M634.888 -887.43L2284.93 762.61M641.959 -894.501L2292 755.539M649.03 -901.573L2299.07 748.468M656.101 -908.644L2306.14 741.397M663.173 -915.715L2313.21 734.325M670.244 -922.786L2320.28 727.254M677.315 -929.858L2327.36 720.183M684.386 -936.929L2334.43 713.112M691.458 -944L2341.5 706.041" stroke="url(#paint0_linear_1_490)" stroke-opacity="0.7" stroke-width="1.2"/>
</g>
<defs>
<linearGradient id="paint0_linear_1_490" x1="798.749" y1="-944" x2="798.749" y2="2141.5" gradientUnits="userSpaceOnUse">
<stop stop-color="#E9E9E9" stop-opacity="0.15"/>
<stop offset="1" stop-color="#E9E9E9" stop-opacity="0.03"/>
</linearGradient>
<clipPath id="clip0_1_490">
<rect width="1512" height="982" fill="white"/>
</clipPath>
</defs>
</svg>
